<svg xmlns="http://www.w3.org/2000/svg" viewBox="0 0 64 64" fill="none">
  <defs>
    <linearGradient id="favGold" x1="10" y1="10" x2="54" y2="54" gradientUnits="userSpaceOnUse">
      <stop stop-color="#F6D879"/>
      <stop offset="0.45" stop-color="#FFF0B2"/>
      <stop offset="1" stop-color="#B98414"/>
    </linearGradient>
    <linearGradient id="favSilver" x1="12" y1="42" x2="55" y2="50" gradientUnits="userSpaceOnUse">
      <stop stop-color="#F8FBFF"/>
      <stop offset="0.48" stop-color="#D8DEE8"/>
      <stop offset="1" stop-color="#B9C2CF"/>
    </linearGradient>
  </defs>
  <circle cx="32" cy="32" r="28" fill="#0C285C" stroke="url(#favGold)" stroke-width="3"/>
  <path d="M16 31L32 18L48 31" stroke="url(#favGold)" stroke-width="4" stroke-linecap="round" stroke-linejoin="round"/>
  <path d="M21 29V45H43V29" stroke="#FFF8EA" stroke-width="4" stroke-linejoin="round"/>
  <path d="M46.5 16L48.2 19.8L52 21.5L48.2 23.2L46.5 27L44.8 23.2L41 21.5L44.8 19.8L46.5 16Z" fill="url(#favGold)"/>
  <path d="M10 45.5C18.5 42.2 25.8 43 33 46.2C39.7 49.2 46.2 49.3 53.8 46.4" stroke="url(#favGold)" stroke-width="2.8" stroke-linecap="round"/>
  <path d="M10.8 49C19 45.8 26 46.6 32.9 49.7C39.4 52.6 45.8 52.7 53 49.9" stroke="url(#favSilver)" stroke-width="3.2" stroke-linecap="round"/>
</svg>
